<?xml version="1.0" standalone="no"?>
<!DOCTYPE svg PUBLIC "-//W3C//DTD SVG 20010904//EN"
 "http://www.w3.org/TR/2001/REC-SVG-20010904/DTD/svg10.dtd">
<svg version="1.0" xmlns="http://www.w3.org/2000/svg"
 width="256.000000pt" height="256.000000pt" viewBox="0 0 256.000000 256.000000"
 preserveAspectRatio="xMidYMid meet">

<g transform="translate(0.000000,256.000000) scale(0.100000,-0.100000)"
fill="#000000" stroke="none">
<path d="M1160 2475 c-8 -2 -49 -9 -90 -15 -358 -58 -694 -309 -862 -645 -89
-177 -122 -320 -123 -530 0 -163 11 -239 56 -377 97 -300 319 -557 607 -702
85 -43 216 -87 317 -107 103 -21 349 -18 455 5 362 78 668 314 834 644 84 168
121 329 121 532 0 157 -12 236 -56 372 -96 297 -319 557 -599 698 -167 84
-307 119 -505 125 -77 2 -147 2 -155 0z m266 -166 c153 -21 331 -92 459 -184
68 -48 205 -187 251 -255 81 -118 146 -280 169 -425 55 -338 -56 -668 -307
-911 -119 -115 -237 -187 -393 -241 -308 -105 -680 -45 -941 150 -70 53 -196
183 -241 248 -177 257 -229 598 -136 894 54 173 141 312 274 440 98 94 146
129 255 183 190 96 400 130 610 101z"/>
<path d="M830 1747 c-49 -16 -123 -93 -138 -143 -8 -28 -12 -130 -12 -324 0
-194 4 -296 12 -324 16 -54 90 -128 144 -144 23 -6 93 -12 156 -12 102 0 118
2 142 21 37 29 37 89 0 118 -23 18 -41 21 -140 21 -166 0 -154 -25 -154 320 0
345 -12 320 154 320 99 0 117 3 140 21 20 16 26 29 26 59 0 30 -6 43 -26 59
-24 19 -40 21 -148 20 -66 -1 -137 -6 -156 -12z"/>
<path d="M1296 1739 c-20 -16 -26 -29 -26 -57 0 -20 45 -219 99 -442 107 -434
109 -440 171 -440 57 0 63 14 205 451 74 229 135 427 135 438 0 31 -44 71 -77
71 -58 0 -66 -15 -159 -300 -48 -149 -91 -267 -95 -263 -4 5 -35 124 -69 266
-54 224 -65 260 -87 277 -33 26 -64 25 -97 -1z"/>
</g>
</svg>
