<?xml version="1.0" standalone="no"?>
<!DOCTYPE svg PUBLIC "-//W3C//DTD SVG 20010904//EN"
 "http://www.w3.org/TR/2001/REC-SVG-20010904/DTD/svg10.dtd">
<svg version="1.0" xmlns="http://www.w3.org/2000/svg"
 width="400.000000pt" height="400.000000pt" viewBox="0 0 400.000000 400.000000"
 preserveAspectRatio="xMidYMid meet">

<g transform="translate(0.000000,400.000000) scale(0.100000,-0.100000)"
fill="#21005d" stroke="none">
<path d="M2540 3604 c-57 -15 -151 -65 -450 -239 -96 -56 -299 -173 -450 -260
-151 -87 -315 -182 -365 -211 -49 -28 -134 -77 -187 -109 -76 -43 -99 -62
-105 -83 -3 -15 -73 -270 -154 -567 -127 -465 -145 -543 -134 -560 15 -25 59
-31 88 -12 20 13 582 338 721 416 55 32 58 33 51 11 -4 -12 -17 -61 -30 -108
-13 -48 -73 -267 -134 -486 -76 -274 -107 -404 -101 -415 5 -9 137 -144 294
-301 273 -272 286 -284 312 -275 31 11 32 15 92 240 22 83 80 297 128 477 l87
327 218 130 c239 144 276 176 335 292 23 47 79 236 190 640 176 645 180 668
136 799 -27 78 -44 106 -110 174 -113 116 -277 161 -432 120z m230 -109 c65
-22 140 -83 178 -145 77 -130 75 -154 -58 -647 -61 -224 -113 -416 -116 -426
-4 -13 -15 -3 -46 43 -90 136 -238 208 -405 197 -92 -5 -146 -27 -306 -120
-51 -30 -200 -116 -332 -192 -132 -76 -280 -161 -330 -190 -178 -104 -471
-273 -502 -289 -23 -11 -31 -12 -28 -4 2 7 58 213 125 458 66 245 124 454 129
465 5 11 75 59 157 106 82 48 262 152 399 231 138 79 385 222 549 317 165 95
315 180 335 189 80 34 160 36 251 7z m-276 -1108 c62 -29 120 -77 152 -128 60
-96 70 -237 22 -341 -46 -100 -46 -100 -688 -478 -96 -57 -206 -122 -245 -145
-234 -140 -316 -184 -311 -168 3 10 28 99 55 198 27 99 71 257 96 350 26 94
62 223 79 287 17 65 36 122 41 127 29 27 542 312 578 320 63 15 161 5 221 -22z
m-528 -1423 c-59 -219 -109 -400 -112 -403 -2 -3 -101 91 -219 209 -118 118
-211 217 -207 221 15 15 637 378 640 374 2 -2 -44 -182 -102 -401z"/>
</g>
</svg>
